<?xml version="1.0" encoding="UTF-8" standalone="no"?>
<svg
   version="1.1"
   x="0px"
   y="0px"
   viewBox="0 0 100 125"
   enable-background="new 0 0 100 100"
   xml:space="preserve"
   id="svg3"
   sodipodi:docname="noun-dazed.svg"
   inkscape:version="1.3.2 (091e20e, 2023-11-25, custom)"
   xmlns:inkscape="http://www.inkscape.org/namespaces/inkscape"
   xmlns:sodipodi="http://sodipodi.sourceforge.net/DTD/sodipodi-0.dtd"
   xmlns="http://www.w3.org/2000/svg"
   xmlns:svg="http://www.w3.org/2000/svg"><defs
     id="defs3" /><sodipodi:namedview
     id="namedview3"
     pagecolor="#ffffff"
     bordercolor="#666666"
     borderopacity="1.0"
     inkscape:showpageshadow="2"
     inkscape:pageopacity="0.0"
     inkscape:pagecheckerboard="0"
     inkscape:deskcolor="#d1d1d1"
     inkscape:zoom="9.112"
     inkscape:cx="50.043898"
     inkscape:cy="53.720369"
     inkscape:window-width="2560"
     inkscape:window-height="1377"
     inkscape:window-x="1912"
     inkscape:window-y="-8"
     inkscape:window-maximized="1"
     inkscape:current-layer="svg3" /><path
     d="M 49.519315,0.95761194 C 22.500246,0.95761194 0.51863038,22.840764 0.51863038,49.738806 0.51863038,76.636848 22.500246,98.52 49.519315,98.52 76.538384,98.52 98.52,76.636848 98.52,49.738806 98.52,22.840764 76.538384,0.95761194 49.519315,0.95761194 Z m 0,93.00339806 c -24.576667,0 -44.4211814,-19.90759 -44.4211814,-44.222204 0,-24.314614 19.8445144,-44.222204 44.4211814,-44.222204 24.576668,0 44.421182,19.755624 44.421182,44.222204 0,24.46658 -19.844514,44.222204 -44.421182,44.222204 z"
     style="stroke-width:1.52308; fill: var(--icon-fill, #fff);"
     id="path1"/><path
     d="m 26.163849,48.675042 c -3.510953,-1.215731 -6.258655,-3.647192 -7.937806,-6.838486 -2.595052,-5.166855 -0.45795,-11.549441 4.732153,-14.132869 1.984452,-0.911798 4.121553,-1.063764 6.258655,-0.455899 2.137101,0.759832 3.816252,2.127529 4.732153,4.103091 1.526501,3.039327 0.3053,6.838485 -2.747702,8.358149 -2.289751,1.21573 -5.190104,0.151966 -6.258654,-2.127529 -0.457951,-0.759832 -0.457951,-1.823596 -0.15265,-2.583428 0.3053,-0.759831 0.9159,-1.519663 1.679151,-1.975562 0.6106,-0.303933 1.221201,-0.303933 1.831801,-0.151966 0.610601,0.151966 1.068551,0.607865 1.373851,1.21573 0.45795,0.759832 0.15265,1.823596 -0.76325,2.279495 -0.457951,0.303933 -1.068551,0 -1.373851,-0.455899 l -2.747702,1.367697 c 0.45795,0.911798 1.373851,1.67163 2.289751,1.975563 1.068551,0.303932 2.137102,0.303932 3.053002,-0.151967 2.289752,-1.21573 3.205653,-3.951124 2.137102,-6.230619 -0.6106,-1.367697 -1.831801,-2.279495 -3.205652,-2.735394 -1.373851,-0.455899 -2.900352,-0.303933 -4.274203,0.303932 -1.526501,0.759832 -2.747702,2.127529 -3.205653,3.799159 -0.6106,1.671629 -0.45795,3.343259 0.305301,5.014889 1.984451,3.799158 6.563954,5.318822 10.380207,3.495225 4.579503,-2.279495 6.411304,-7.902249 4.121553,-12.461239 -1.373851,-2.735394 -3.663603,-4.710957 -6.563955,-5.622755 -2.900352,-0.911798 -5.953354,-0.759831 -8.548406,0.607866 -6.716605,3.343259 -9.464307,11.549441 -6.106004,18.23596 1.984451,3.951125 5.495404,6.990452 9.616957,8.358149 1.679151,0.607865 3.510952,0.911798 5.342753,0.911798 2.595052,0 5.037454,-0.607866 7.479856,-1.823596 l -1.373851,-2.735394 c -2.900352,1.367697 -6.563955,1.519663 -10.074907,0.455899 z"
     style="stroke-width:1.52308; fill: var(--icon-fill, #fff);"
     id="path2"/><path
     d="m 67.379378,48.675042 c -3.510953,-1.215731 -6.258655,-3.647192 -7.937806,-6.838486 -2.595052,-5.166855 -0.45795,-11.549441 4.732154,-14.132869 1.984451,-0.911798 4.121553,-1.063764 6.258654,-0.455899 2.137102,0.759832 3.816253,2.127529 4.732153,4.103091 1.526501,3.039327 0.305301,6.838485 -2.747702,8.358149 -2.289751,1.21573 -5.190103,0.151966 -6.258654,-2.127529 -0.45795,-0.759832 -0.45795,-1.823596 -0.15265,-2.583428 0.3053,-0.759831 0.915901,-1.519663 1.679151,-1.975562 0.610601,-0.303933 1.221201,-0.303933 1.831801,-0.151966 0.610601,0.151966 1.068551,0.607865 1.373851,1.21573 0.457951,0.759832 0.15265,1.823596 -0.76325,2.279495 -0.45795,0.303933 -1.068551,0 -1.373851,-0.455899 l -2.747702,1.367697 c 0.45795,0.911798 1.373851,1.67163 2.289752,1.975563 1.06855,0.303932 2.137101,0.303932 3.053002,-0.151967 2.289751,-1.21573 3.205652,-3.951124 2.137101,-6.230619 -0.6106,-1.367697 -1.831801,-2.279495 -3.205652,-2.735394 -1.373851,-0.455899 -2.900352,-0.303933 -4.274203,0.303932 -1.526501,0.759832 -2.747702,2.127529 -3.205652,3.799159 -0.610601,1.671629 -0.457951,3.343259 0.3053,5.014889 1.984451,3.799158 6.563955,5.318822 10.380207,3.495225 4.579503,-2.279495 6.411305,-7.902249 4.121553,-12.461239 -1.373851,-2.735394 -3.663602,-4.710957 -6.563955,-5.622755 -2.900352,-0.911798 -5.953354,-0.759831 -8.548406,0.607866 -6.716604,3.343259 -9.464306,11.549441 -6.106004,18.23596 1.984451,3.951125 5.495404,6.990452 9.616957,8.358149 1.679151,0.607865 3.510952,0.911798 5.342754,0.911798 2.595052,0 5.037453,-0.607866 7.479855,-1.823596 l -1.373851,-2.735394 c -2.900352,1.367697 -6.563955,1.519663 -10.074907,0.455899 z"
     style="stroke-width:1.52308; fill: var(--icon-fill, #fff);"
     id="path3"/><ellipse
     cx="49.519314"
     cy="64.631508"
     style="stroke-width:1.52308; fill: var(--icon-fill, #fff);"
     id="circle3"
     rx="2.2897515"
     ry="2.279495"/></svg>
