<svg xmlns="http://www.w3.org/2000/svg" xmlns:xlink="http://www.w3.org/1999/xlink" version="1.1" x="0px" y="0px" viewBox="0 0 512 640" style="enable-background:new 0 0 512 512;" xml:space="preserve"><style type="text/css">
	.st0{fill:none;}
</style><g><path class="st0" d="M188.5,334.1C188.5,334,188.5,334,188.5,334.1L188.5,334.1C188.5,334,188.5,334,188.5,334.1z" style="fill: var(--icon-fill, #fff);"/><path class="st0" d="M173.9,368.2c-1.6,0.9-3.3,1.5-5,1.9c-0.3,0.1-0.7,0.2-1.1,0.2c-1.4,0.3-2.9,0.4-4.4,0.4   c-5.9,0-11.5-2.3-15.7-6.5c-6.2-6.2-8-15.3-5.2-23.1c0.2-0.7,0.5-1.3,0.8-2c0.1-0.3,0.3-0.7,0.5-1c0.2-0.3,0.3-0.6,0.5-1   c0.9-1.6,2.1-3.1,3.4-4.4l6.7-6.7c-0.4,0.1-0.9,0.3-1.3,0.5c-0.9,0.3-1.7,0.7-2.5,1.1c-1.2,0.6-2.5,1.4-3.6,2.2   c-0.4,0.3-0.7,0.6-1.1,0.9c-0.4,0.3-0.7,0.6-1.1,1L90.7,386c-1.2,1.2-2.2,2.4-3.1,3.8c-2.7,4-4.2,8.8-4.2,13.8   c0,5.8,2,11.4,5.6,15.8c0,0,0,0,0,0c0.5,0.6,1.1,1.2,1.7,1.8c0.6,0.6,1.2,1.2,1.9,1.7c0,0,0,0,0,0c1.6,1.3,3.4,2.4,5.2,3.3   c1.5,0.7,3,1.2,4.6,1.6c0.8,0.2,1.5,0.3,2.3,0.5c2.5,0.4,4.9,0.3,7.4,0c0.3,0,0.6-0.1,1-0.2c4.7-0.9,9.2-3.2,12.8-6.8l54.1-54.1   c0,0,0,0,0,0c0.3-0.3,0.6-0.7,0.9-1c0,0,0,0,0,0c0.3-0.3,0.6-0.7,0.9-1.1c0,0,0,0,0,0c0.3-0.4,0.5-0.7,0.8-1.1c1.3-1.9,2.2-4,3-6.1   l-6.5,6.5C177.6,365.9,175.8,367.2,173.9,368.2z"  style="fill: var(--icon-fill, #fff);"/><path class="st0" d="M411.9,84.8c-5.3-1.9-11.2-1.9-16.5,0c-3.4,1.2-6.6,3.2-9.4,5.9l-54.1,54.1c-2.7,2.7-4.5,6.1-5.7,9.6l0,0   l6.7-6.6c2.4-2.4,5.2-4.1,8.2-5.2c2.4-0.8,4.9-1.3,7.5-1.3c0,0,0,0,0,0c2.6,0,5.1,0.4,7.5,1.3c3.1,1.1,5.9,2.9,8.2,5.2   c4.2,4.2,6.5,9.8,6.5,15.7c0,5.9-2.3,11.5-6.5,15.7l-6.5,6.5c0,0,0,0,0,0c0.8-0.3,1.6-0.6,2.3-0.9c1.1-0.5,2.2-1.1,3.2-1.7   c0.6-0.4,1.1-0.8,1.7-1.2c0,0,0,0,0,0c0.7-0.6,1.4-1.2,2.1-1.8l54.1-54.1c9.7-9.7,9.7-25.5,0-35.2C418.5,88,415.3,86,411.9,84.8z"  style="fill: var(--icon-fill, #fff);"/><path d="M455.3,56.6c-13.8-13.8-32.1-21.4-51.7-21.4s-37.9,7.6-51.7,21.4l-54.1,54.1c-22.4,22.4-27.3,57.2-13,85l-34.1,34.1   c-2.1,2.1-2.8,5.3-1.6,8.1c1.1,2.8,3.9,4.6,6.9,4.6H298c2,0,3.8-0.8,5.2-2.2l13-13c10.6,5.5,22,8.4,33.4,8.4   c18.8,0,37.4-7.4,51.6-21.6l54.1-54.1c13.8-13.8,21.4-32.1,21.4-51.6C476.8,88.8,469.2,70.4,455.3,56.6z M421.3,125.9L367.2,180   c-0.7,0.7-1.4,1.3-2.1,1.8c0,0,0,0,0,0c-0.5,0.4-1.1,0.8-1.7,1.2c-1,0.7-2.1,1.2-3.2,1.7c-0.8,0.3-1.5,0.6-2.3,0.9c0,0,0,0,0,0   l6.5-6.5c4.2-4.2,6.5-9.8,6.5-15.7c0-6-2.3-11.5-6.5-15.7c-2.4-2.4-5.2-4.1-8.2-5.2c-2.4-0.8-4.9-1.3-7.5-1.3c0,0,0,0,0,0   c-2.6,0-5.1,0.4-7.5,1.3c-3.1,1.1-5.9,2.9-8.2,5.2l-6.7,6.6l0,0c1.2-3.5,3-6.8,5.7-9.6L386,90.7c2.7-2.7,6-4.7,9.4-5.9   c5.3-1.9,11.2-1.9,16.5,0c3.4,1.2,6.6,3.2,9.4,5.9C431,100.4,431,116.2,421.3,125.9z"  style="fill: var(--icon-fill, #fff);"/><path d="M326.7,263.7h-24.6c-4.1,0-7.4,3.3-7.4,7.4s3.3,7.4,7.4,7.4h24.6c4.1,0,7.4-3.3,7.4-7.4S330.8,263.7,326.7,263.7z"/><path d="M299.7,289.2c-2.9-2.9-7.6-2.9-10.5,0s-2.9,7.6,0,10.5l17.4,17.4c1.5,1.5,3.3,2.2,5.2,2.2c1.9,0,3.8-0.7,5.2-2.2   c2.9-2.9,2.9-7.6,0-10.5L299.7,289.2z"  style="fill: var(--icon-fill, #fff);"/><path d="M271.1,294.6c-4.1,0-7.4,3.3-7.4,7.4v24.6c0,4.1,3.3,7.4,7.4,7.4c4.1,0,7.4-3.3,7.4-7.4V302   C278.5,298,275.2,294.6,271.1,294.6z"  style="fill: var(--icon-fill, #fff);"/><path d="M240.9,217.3c4.1,0,7.4-3.3,7.4-7.4v-24.6c0-4.1-3.3-7.4-7.4-7.4c-4.1,0-7.4,3.3-7.4,7.4v24.6   C233.5,214,236.8,217.3,240.9,217.3z"/><path d="M212.2,222.7c1.5,1.4,3.3,2.2,5.2,2.2c1.9,0,3.8-0.7,5.2-2.2c2.9-2.9,2.9-7.6,0-10.5l-17.4-17.4c-2.9-2.9-7.6-2.9-10.5,0   c-2.9,2.9-2.9,7.6,0,10.5L212.2,222.7z"  style="fill: var(--icon-fill, #fff);"/><path d="M185.3,248.3h24.6c4.1,0,7.4-3.3,7.4-7.4c0-4.1-3.3-7.4-7.4-7.4h-24.6c-4.1,0-7.4,3.3-7.4,7.4   C177.9,245,181.2,248.3,185.3,248.3z"  style="fill: var(--icon-fill, #fff);"/><path d="M256,269.6h-41.9c-2,0-3.9,0.8-5.2,2.2l-13.1,13.1c-27.8-14.3-62.6-9.4-85,13L56.6,352c-28.5,28.5-28.5,74.9,0,103.4   c13.8,13.8,32.2,21.4,51.7,21.4c0,0,0,0,0.1,0c19.5,0,37.9-7.6,51.6-21.4l54.1-54.1c22.9-22.9,27.7-57,13.1-84.9l34.1-34.1   c2.1-2.1,2.8-5.3,1.6-8.1C261.7,271.4,259,269.6,256,269.6z M182.7,364c-0.2,0.4-0.5,0.7-0.8,1.1c0,0,0,0,0,0   c-0.3,0.4-0.6,0.7-0.9,1.1c0,0,0,0,0,0c-0.3,0.3-0.6,0.7-0.9,1c0,0,0,0,0,0l-54.1,54.1c-3.6,3.6-8.1,5.9-12.8,6.8   c-0.3,0.1-0.6,0.1-1,0.2c-2.5,0.4-4.9,0.4-7.4,0c-0.8-0.1-1.6-0.3-2.3-0.5c-1.6-0.4-3.1-0.9-4.6-1.6c-1.8-0.8-3.6-1.9-5.2-3.3   c0,0,0,0,0,0c-0.7-0.5-1.3-1.1-1.9-1.7c-0.6-0.6-1.1-1.2-1.7-1.8c0,0,0,0,0,0c-3.6-4.4-5.6-9.9-5.6-15.8c0-5,1.5-9.8,4.2-13.8   c0.9-1.4,1.9-2.6,3.1-3.8l54.1-54.1c0.3-0.3,0.7-0.7,1.1-1c0.4-0.3,0.7-0.6,1.1-0.9c1.1-0.9,2.3-1.6,3.6-2.2   c0.8-0.4,1.7-0.8,2.5-1.1c0.4-0.2,0.9-0.3,1.3-0.5l-6.7,6.7c-1.4,1.3-2.5,2.8-3.4,4.4c-0.2,0.3-0.4,0.6-0.5,1   c-0.2,0.3-0.3,0.7-0.5,1c-0.3,0.7-0.6,1.3-0.8,2c-2.7,7.8-1,16.9,5.2,23.1c4.2,4.2,9.8,6.5,15.7,6.5c1.5,0,3-0.2,4.4-0.4   c0.4-0.1,0.7-0.1,1.1-0.2c1.8-0.4,3.4-1.1,5-1.9c1.9-1,3.7-2.3,5.3-3.9l6.5-6.5C184.9,360,183.9,362,182.7,364z M188.5,334.1   C188.5,334,188.5,334,188.5,334.1L188.5,334.1C188.5,334,188.5,334,188.5,334.1z"  style="fill: var(--icon-fill, #fff);"/></g></svg>
