<?xml version="1.0" standalone="no"?>
<!DOCTYPE svg PUBLIC "-//W3C//DTD SVG 20010904//EN"
 "http://www.w3.org/TR/2001/REC-SVG-20010904/DTD/svg10.dtd">
<svg version="1.0" xmlns="http://www.w3.org/2000/svg"
 width="512.000000pt" height="512.000000pt" viewBox="0 0 512.000000 512.000000"
 preserveAspectRatio="xMidYMid meet">

<g transform="translate(0.000000,512.000000) scale(0.100000,-0.100000)"
fill="#000000" stroke="none">
<path d="M2218 4835 c-429 -67 -785 -393 -893 -819 -13 -51 -27 -136 -31 -188
-6 -82 -3 -112 21 -223 35 -164 31 -208 -19 -251 -57 -49 -97 -56 -331 -52
-233 3 -280 -3 -378 -55 -193 -101 -253 -359 -138 -593 76 -153 217 -261 456
-349 313 -116 541 -275 729 -509 157 -195 245 -347 316 -547 68 -190 110 -258
239 -392 130 -135 347 -295 516 -380 323 -162 778 -233 1259 -196 177 13 214
22 222 53 9 37 -9 59 -93 119 -155 108 -270 259 -308 403 -8 32 -15 99 -15
150 0 180 64 339 226 559 160 216 192 302 201 530 6 160 -5 261 -48 445 -68
287 -46 438 95 655 30 46 101 132 158 192 186 195 259 295 299 410 40 117 35
221 -17 324 -67 135 -248 205 -426 165 -103 -23 -181 -72 -272 -171 -85 -93
-137 -128 -227 -151 -75 -19 -144 -13 -216 20 -64 30 -95 71 -143 189 -56 137
-101 206 -198 309 -273 287 -615 410 -984 353z m404 -114 c192 -50 329 -130
484 -286 118 -118 108 -101 238 -377 43 -90 101 -147 181 -177 118 -44 239
-36 360 24 69 34 111 69 211 177 141 151 392 156 489 10 38 -58 52 -137 36
-207 -27 -120 -96 -223 -285 -423 -178 -188 -263 -329 -307 -502 -28 -109 -22
-256 15 -410 77 -313 75 -567 -3 -735 -16 -33 -72 -118 -125 -190 -172 -232
-249 -424 -248 -621 1 -209 72 -364 243 -529 50 -48 88 -90 84 -93 -11 -12
-499 -6 -600 7 -332 42 -575 121 -782 257 -291 189 -469 372 -537 552 -91 240
-114 292 -169 384 -127 211 -306 422 -462 543 -147 114 -291 193 -495 269
-166 63 -242 106 -321 185 -78 79 -118 155 -133 259 -24 172 51 303 203 349
46 14 99 17 296 18 l240 0 57 28 c96 47 147 122 148 217 0 19 -12 95 -27 169
-25 127 -26 141 -15 236 50 446 392 808 832 880 112 19 290 12 392 -14z"/>
<path d="M2731 3970 c-95 -23 -164 -116 -165 -223 0 -81 18 -131 68 -185 72
-79 166 -102 251 -63 142 66 173 266 61 398 -47 56 -145 89 -215 73z m116
-118 c26 -14 48 -49 63 -98 16 -54 0 -114 -41 -148 -100 -84 -246 61 -194 192
30 75 95 95 172 54z"/>
<path d="M1980 3754 c-107 -46 -162 -173 -127 -295 61 -208 317 -250 410 -67
102 199 -91 445 -283 362z m138 -104 c48 -29 72 -75 72 -138 0 -66 -22 -106
-68 -128 -118 -56 -236 132 -150 241 37 48 93 57 146 25z"/>
<path d="M2718 3289 c-15 -8 -18 -24 -18 -81 0 -53 -5 -79 -20 -103 -54 -87
-169 -61 -221 49 -20 41 -42 53 -73 38 -35 -16 -34 -53 5 -120 69 -121 219
-156 326 -76 17 13 44 49 58 79 24 48 27 64 23 126 -3 55 -8 74 -23 85 -22 16
-34 17 -57 3z"/>
</g>
</svg>
